<svg xmlns="http://www.w3.org/2000/svg" version="1.1" xmlns:xlink="http://www.w3.org/1999/xlink" xmlns:svgjs="http://svgjs.com/svgjs" width="1600" height="200" preserveAspectRatio="none" viewBox="0 0 1600 200"><g mask="url(&quot;#SvgjsMask1017&quot;)" fill="none"><path d="M 0,23 C 64,34.4 192,79.2 320,80 C 448,80.8 512,27.8 640,27 C 768,26.2 832,74.6 960,76 C 1088,77.4 1152,34 1280,34 C 1408,34 1536,67.6 1600,76L1600 200L0 200z" fill="rgba(0, 0, 0, 1)"></path><path d="M 0,184 C 106.8,170 320.4,112.6 534,114 C 747.6,115.4 854.8,193.6 1068,191 C 1281.2,188.4 1493.6,119 1600,101L1600 200L0 200z" fill="rgba(51, 51, 51, 1)"></path></g><defs><mask id="SvgjsMask1017"><rect width="1600" height="200" fill="#ffffff"></rect></mask></defs></svg>